{"title":"Raoul Ruiz - La ville des pirates (1983)","uid":6117521,"size":1472753184,"categoryP":"video","categoryS":"movies","magnet":"?xt=urn:btih:6026bd6473caf5368475380508e672151f11d618&amp;dn=Raoul+Ruiz+-+La+ville+des+pirates+%281983%29&amp;tr=udp%3A%2F%2Ftracker.openbittorrent.com%3A80&amp;tr=udp%3A%2F%2Fopen.demonii.com%3A1337&amp;tr=udp%3A%2F%2Ftracker.coppersurfer.tk%3A6969&amp;tr=udp%3A%2F%2Fexodus.desync.com%3A6969","seeders":4,"leechers":0,"uploader":"mfccorrea","files":3,"time":1295619995,"description":"Isidore is a servant in a small Portuguese town in the seaside arrives from who knows where a mysterious child, Malo, the young woman later discovered that he murdered his entire family. Together, they will kill the fiance of Isidore, then go to an island almost deserted. Isidore is taken prisoner by a multifaceted character, Toby, who is transformed by turns in all family members. Freed, the girl can become the mistress of the castle pirates and marry Toby. But when she finishes them, she finds Malo and winds through all three residents of the island, the child murderer, the maid and Toby who is a ghost.\n\n   General\n      Complete name : La ville des pirates.avi\n      Format : AVI\n      Format/Info : Audio Video Interleave\n      File size : 1.36 GiB\n      Duration : 1h 48mn\n      Overall bit rate : 1 804 Kbps\n      Writing application : FairUse Wizard - http://fairusewizard.com\n   Video #0\n      ID : 0\n      Format : MPEG-4 Visual\n      Format profile : AdvancedSimple@L5\n      Format settings, BVOP : Yes\n      Format settings, QPel : No\n      Format settings, GMC : No warppoints\n      Format settings, Matrix : Default (MPEG)\n      Muxing mode : Packed bitstream\n      Codec ID : XVID\n      Codec ID/Hint : XviD\n      Duration : 1h 48mn\n      Bit rate : 1 602 Kbps\n      Width : 688 pixels\n      Height : 496 pixels\n      Display aspect ratio : 1.387\n      Frame rate : 25.000 fps\n      Resolution : 24 bits\n      Colorimetry : 4:2:0\n      Scan type : Progressive\n      Bits/(Pixel*Frame) : 0.188\n      Stream size : 1.21 GiB (89%)\n      Writing library : XviD 1.2.1 (UTC 2008-12-04)\n   Audio #1\n      ID : 1\n      Format : AC-3\n      Format/Info : Audio Coding 3\n      Codec ID : 2000\n      Duration : 1h 48mn\n      Bit rate mode : Constant\n      Bit rate : 192 Kbps\n      Channel(s) : 2 channels\n      Channel positions : L R\n      Sampling rate : 48.0 KHz\n      Stream size : 149 MiB (11%)\n      Alignment : Split accross interleaves\n      Interleave, duration : 40 ms (1.00 video frame)\n      Interleave, preload duration : 500 ms\n\n &lt;a href=&quot;\nhttp://www.imdb.com/title/tt0086546/&quot; rel=&quot;nofollow&quot; target=&quot;_NEW&quot;&gt;\nhttp://www.imdb.com/title/tt0086546/&lt;/a&gt;\n\nFrench audio; English, French and Portuguese subpack\n\nMy rip\n\nRaoul Ruiz - La ville des pirates (1983)\n","torrent":{"xt":"urn:btih:6026bd6473caf5368475380508e672151f11d618","amp;dn":"Raoul+Ruiz+-+La+ville+des+pirates+%281983%29","amp;tr":["udp%3A%2F%2Ftracker.openbittorrent.com%3A80","udp%3A%2F%2Fopen.demonii.com%3A1337","udp%3A%2F%2Ftracker.coppersurfer.tk%3A6969","udp%3A%2F%2Fexodus.desync.com%3A6969"],"infoHash":"6026bd6473caf5368475380508e672151f11d618","infoHashBuffer":{"type":"Buffer","data":[96,38,189,100,115,202,245,54,132,117,56,5,8,230,114,21,31,17,214,24]},"announce":[],"urlList":[]}}